<svg xmlns="http://www.w3.org/2000/svg" xmlns:xlink="http://www.w3.org/1999/xlink" width="241" zoomAndPan="magnify" viewBox="0 0 180.75 239.249991" height="319" preserveAspectRatio="xMidYMid meet" version="1.0"><defs><g/><clipPath id="eec81fd6a1"><path d="M 18.8125 43.628906 L 161.589844 43.628906 L 161.589844 194.652344 L 18.8125 194.652344 Z M 18.8125 43.628906 " clip-rule="nonzero"/></clipPath></defs><g clip-path="url(#eec81fd6a1)"><path stroke-linecap="butt" transform="matrix(0.747656, 0, 0, 0.747656, 18.810825, 43.630536)" fill="none" stroke-linejoin="miter" d="M 0.00224067 -0.0021795 L 190.968818 -0.0021795 L 190.968818 202.286237 L 0.00224067 202.286237 Z M 0.00224067 -0.0021795 " stroke="#060606" stroke-width="2" stroke-opacity="1" stroke-miterlimit="4"/></g><g fill="#060606" fill-opacity="1"><g transform="translate(41.08031, 175.699205)"><g><path d="M 29.15625 -112.15625 L 69.078125 -112.15625 L 69.078125 -100.1875 L 62.203125 -100.1875 L 88.515625 -11.96875 L 96 -11.96875 L 96 0 L 64.296875 0 L 64.296875 -11.96875 L 74.765625 -11.96875 L 67.890625 -34.984375 L 30.359375 -34.984375 L 23.46875 -11.96875 L 33.9375 -11.96875 L 33.9375 0 L 2.25 0 L 2.25 -11.96875 L 9.71875 -11.96875 L 36.03125 -100.1875 L 29.15625 -100.1875 Z M 49.046875 -97.9375 L 33.9375 -46.953125 L 64.296875 -46.953125 Z M 49.046875 -97.9375 "/></g></g></g></svg>